<mxfile host="65bd71144e">
    <diagram id="P77ggclfAmwT4LMN_4kF" name="Page-1">
        <mxGraphModel dx="706" dy="563" grid="1" gridSize="10" guides="1" tooltips="1" connect="1" arrows="1" fold="1" page="1" pageScale="1" pageWidth="850" pageHeight="1100" background="#ffffff" math="0" shadow="0">
            <root>
                <mxCell id="0"/>
                <mxCell id="1" parent="0"/>
                <mxCell id="2" value="&lt;font color=&quot;#000000&quot;&gt;Administrator&lt;/font&gt;" style="shape=umlActor;html=1;verticalLabelPosition=bottom;verticalAlign=top;align=center;strokeColor=#030303;fillColor=#FFED1A;strokeWidth=2;" parent="1" vertex="1">
                    <mxGeometry x="120" y="80" width="30" height="60" as="geometry"/>
                </mxCell>
                <mxCell id="3" value="&lt;b&gt;&lt;font color=&quot;#000000&quot;&gt;User&lt;/font&gt;&lt;/b&gt;" style="shape=umlActor;html=1;verticalLabelPosition=bottom;verticalAlign=top;align=center;strokeColor=#000000;fillColor=#FFED1A;strokeWidth=2;" parent="1" vertex="1">
                    <mxGeometry x="120" y="340" width="30" height="60" as="geometry"/>
                </mxCell>
                <mxCell id="7" value="Manage Users" style="ellipse;whiteSpace=wrap;html=1;fillColor=#17C1FF;strokeColor=#000000;fontColor=#000000;fontStyle=1" parent="1" vertex="1">
                    <mxGeometry x="260" y="10" width="110" height="50" as="geometry"/>
                </mxCell>
                <mxCell id="8" value="Manage Files" style="ellipse;whiteSpace=wrap;html=1;fillColor=#17C1FF;fontStyle=1;fontColor=#000000;strokeColor=#000000;" parent="1" vertex="1">
                    <mxGeometry x="345" y="70" width="110" height="50" as="geometry"/>
                </mxCell>
                <mxCell id="9" value="Manage Directories" style="ellipse;whiteSpace=wrap;html=1;fillColor=#002AFF;fontStyle=1" parent="1" vertex="1">
                    <mxGeometry x="290" y="150" width="110" height="50" as="geometry"/>
                </mxCell>
                <mxCell id="10" value="View Files" style="ellipse;whiteSpace=wrap;html=1;strokeColor=#002AFF;fontStyle=1" parent="1" vertex="1">
                    <mxGeometry x="290" y="210" width="110" height="50" as="geometry"/>
                </mxCell>
                <mxCell id="11" value="Create File" style="ellipse;whiteSpace=wrap;html=1;fontStyle=1" parent="1" vertex="1">
                    <mxGeometry x="370" y="260" width="110" height="50" as="geometry"/>
                </mxCell>
                <mxCell id="13" value="Read File" style="ellipse;whiteSpace=wrap;html=1;fontStyle=1" parent="1" vertex="1">
                    <mxGeometry x="400" y="320" width="110" height="50" as="geometry"/>
                </mxCell>
                <mxCell id="14" value="Update File" style="ellipse;whiteSpace=wrap;html=1;" parent="1" vertex="1">
                    <mxGeometry x="370" y="380" width="110" height="50" as="geometry"/>
                </mxCell>
                <mxCell id="15" value="Navigate Directories" style="ellipse;whiteSpace=wrap;html=1;" parent="1" vertex="1">
                    <mxGeometry x="220" y="480" width="110" height="50" as="geometry"/>
                </mxCell>
                <mxCell id="16" value="Delete File" style="ellipse;whiteSpace=wrap;html=1;" parent="1" vertex="1">
                    <mxGeometry x="300" y="430" width="110" height="50" as="geometry"/>
                </mxCell>
                <mxCell id="17" value="" style="edgeStyle=none;html=1;endArrow=none;verticalAlign=bottom;entryX=0;entryY=0.5;entryDx=0;entryDy=0;strokeColor=#000000;strokeWidth=2;" parent="1" target="14" edge="1">
                    <mxGeometry width="160" relative="1" as="geometry">
                        <mxPoint x="160" y="360" as="sourcePoint"/>
                        <mxPoint x="480" y="260" as="targetPoint"/>
                    </mxGeometry>
                </mxCell>
                <mxCell id="18" value="" style="edgeStyle=none;html=1;endArrow=none;verticalAlign=bottom;entryX=0;entryY=1;entryDx=0;entryDy=0;exitX=1;exitY=0.3333333333333333;exitDx=0;exitDy=0;exitPerimeter=0;strokeColor=#000000;strokeWidth=2;" parent="1" source="2" target="7" edge="1">
                    <mxGeometry width="160" relative="1" as="geometry">
                        <mxPoint x="170" y="90" as="sourcePoint"/>
                        <mxPoint x="320" y="110" as="targetPoint"/>
                    </mxGeometry>
                </mxCell>
                <mxCell id="19" value="" style="edgeStyle=none;html=1;endArrow=none;verticalAlign=bottom;entryX=0;entryY=0.5;entryDx=0;entryDy=0;exitX=1;exitY=0.3333333333333333;exitDx=0;exitDy=0;exitPerimeter=0;strokeColor=#000000;strokeWidth=2;" parent="1" source="2" target="8" edge="1">
                    <mxGeometry width="160" relative="1" as="geometry">
                        <mxPoint x="180" y="110" as="sourcePoint"/>
                        <mxPoint x="340" y="110" as="targetPoint"/>
                    </mxGeometry>
                </mxCell>
                <mxCell id="20" value="" style="edgeStyle=none;html=1;endArrow=none;verticalAlign=bottom;entryX=0;entryY=0;entryDx=0;entryDy=0;strokeColor=#000000;strokeWidth=2;" parent="1" target="9" edge="1">
                    <mxGeometry width="160" relative="1" as="geometry">
                        <mxPoint x="150" y="100" as="sourcePoint"/>
                        <mxPoint x="310" y="110" as="targetPoint"/>
                    </mxGeometry>
                </mxCell>
                <mxCell id="21" value="" style="edgeStyle=none;html=1;endArrow=none;verticalAlign=bottom;entryX=0;entryY=0.5;entryDx=0;entryDy=0;strokeColor=#000000;strokeWidth=2;" parent="1" source="3" target="10" edge="1">
                    <mxGeometry width="160" relative="1" as="geometry">
                        <mxPoint x="190" y="280" as="sourcePoint"/>
                        <mxPoint x="310" y="280" as="targetPoint"/>
                    </mxGeometry>
                </mxCell>
                <mxCell id="22" value="" style="edgeStyle=none;html=1;endArrow=none;verticalAlign=bottom;entryX=0;entryY=0.5;entryDx=0;entryDy=0;strokeColor=#000000;strokeWidth=2;" parent="1" target="11" edge="1">
                    <mxGeometry width="160" relative="1" as="geometry">
                        <mxPoint x="150" y="360" as="sourcePoint"/>
                        <mxPoint x="350" y="370" as="targetPoint"/>
                    </mxGeometry>
                </mxCell>
                <mxCell id="23" value="" style="edgeStyle=none;html=1;endArrow=none;verticalAlign=bottom;entryX=0;entryY=0.5;entryDx=0;entryDy=0;exitX=1;exitY=0.3333333333333333;exitDx=0;exitDy=0;exitPerimeter=0;strokeColor=#000000;strokeWidth=2;" parent="1" source="3" target="13" edge="1">
                    <mxGeometry width="160" relative="1" as="geometry">
                        <mxPoint x="190" y="370" as="sourcePoint"/>
                        <mxPoint x="350" y="370" as="targetPoint"/>
                    </mxGeometry>
                </mxCell>
                <mxCell id="24" value="" style="edgeStyle=none;html=1;endArrow=none;verticalAlign=bottom;entryX=0;entryY=0;entryDx=0;entryDy=0;strokeColor=#000000;strokeWidth=2;" parent="1" target="16" edge="1">
                    <mxGeometry width="160" relative="1" as="geometry">
                        <mxPoint x="150" y="360" as="sourcePoint"/>
                        <mxPoint x="310" y="420" as="targetPoint"/>
                    </mxGeometry>
                </mxCell>
                <mxCell id="25" value="" style="edgeStyle=none;html=1;endArrow=none;verticalAlign=bottom;entryX=0;entryY=0;entryDx=0;entryDy=0;exitX=1;exitY=0.3333333333333333;exitDx=0;exitDy=0;exitPerimeter=0;strokeColor=#000000;strokeWidth=2;" parent="1" source="3" target="15" edge="1">
                    <mxGeometry width="160" relative="1" as="geometry">
                        <mxPoint x="70" y="450" as="sourcePoint"/>
                        <mxPoint x="230" y="450" as="targetPoint"/>
                    </mxGeometry>
                </mxCell>
                <mxCell id="26" value="Update File" style="ellipse;whiteSpace=wrap;html=1;fontStyle=1;fontColor=#000000;fillColor=#17C1FF;strokeColor=#000000;" vertex="1" parent="1">
                    <mxGeometry x="370" y="380" width="110" height="50" as="geometry"/>
                </mxCell>
                <mxCell id="27" value="Delete File" style="ellipse;whiteSpace=wrap;html=1;fontStyle=1;fontColor=#000000;fillColor=#17C1FF;strokeColor=#000000;" vertex="1" parent="1">
                    <mxGeometry x="300" y="430" width="110" height="50" as="geometry"/>
                </mxCell>
                <mxCell id="28" value="Navigate Directories" style="ellipse;whiteSpace=wrap;html=1;fontStyle=1;fontColor=#000000;fillColor=#17C1FF;strokeColor=#000000;" vertex="1" parent="1">
                    <mxGeometry x="220" y="480" width="110" height="50" as="geometry"/>
                </mxCell>
                <mxCell id="29" value="Read File" style="ellipse;whiteSpace=wrap;html=1;fontStyle=1;fontColor=#000000;fillColor=#17C1FF;strokeColor=#000000;" vertex="1" parent="1">
                    <mxGeometry x="400" y="320" width="110" height="50" as="geometry"/>
                </mxCell>
                <mxCell id="30" value="Create File" style="ellipse;whiteSpace=wrap;html=1;fontStyle=1;fontColor=#000000;fillColor=#17C1FF;strokeColor=#000000;" vertex="1" parent="1">
                    <mxGeometry x="370" y="260" width="110" height="50" as="geometry"/>
                </mxCell>
                <mxCell id="31" value="View Files" style="ellipse;whiteSpace=wrap;html=1;strokeColor=#000000;fontStyle=1;fontColor=#000000;fillColor=#17C1FF;" vertex="1" parent="1">
                    <mxGeometry x="290" y="210" width="110" height="50" as="geometry"/>
                </mxCell>
                <mxCell id="32" value="Manage Directories" style="ellipse;whiteSpace=wrap;html=1;fillColor=#17C1FF;fontStyle=1;fontColor=#000000;strokeColor=#000000;" vertex="1" parent="1">
                    <mxGeometry x="290" y="150" width="110" height="50" as="geometry"/>
                </mxCell>
            </root>
        </mxGraphModel>
    </diagram>
</mxfile>